# Blender v2.80 (sub 75) OBJ File: ''
# www.blender.org
mtllib Gift01.mtl
o Gift01
v -1.161905 0.440476 1.155952
v -1.161905 -1.659524 0.255952
v -1.161905 -1.659524 1.155952
v -1.161905 0.440476 0.255952
v -1.161905 -1.659524 -0.244048
v -1.161905 0.440476 -0.244048
v -1.161905 -1.659523 -1.144048
v -1.161905 0.440476 -1.144048
v -0.561905 0.640476 0.255952
v -0.561905 0.440476 -0.244048
v -0.561905 0.440476 0.255952
v -0.561905 0.640476 -0.244048
v -0.261905 0.640476 0.655952
v -0.261905 0.440476 0.255952
v -0.261905 0.440476 0.655952
v -0.261905 0.640476 0.255952
v -0.261905 0.640476 -0.244048
v -0.261905 0.440476 -0.644048
v -0.261905 0.440476 -0.244048
v -0.261905 0.640477 -0.644047
v 0.138095 0.540476 -0.244048
v 0.138095 0.440476 -0.244048
v 0.138095 0.440476 0.255952
v 0.138095 0.640476 0.255952
v 0.138095 0.640476 -0.244048
v -0.161905 0.440476 0.255952
v -0.161905 0.440476 -0.244048
v -0.161905 0.540476 -0.244048
v -0.161905 0.640476 0.255952
v -0.161905 0.640476 -0.244048
v 0.238095 0.440476 0.655952
v 0.238095 0.440476 0.255952
v 0.238095 0.640476 0.655952
v 0.238095 0.640476 0.255952
v 0.238095 0.440476 -0.244048
v 0.238095 0.440476 -0.644048
v 0.238095 0.640476 -0.244048
v 0.238095 0.640477 -0.644047
v 0.538095 0.440476 0.255952
v 0.538095 0.440476 -0.244048
v 0.538095 0.640476 0.255952
v 0.538095 0.640476 -0.244048
v 1.138095 -1.659524 1.155952
v 1.138095 -1.659524 0.255952
v 1.138095 0.440476 1.155952
v 1.138095 -1.659524 -0.244048
v 1.138095 0.440476 0.255952
v 1.138095 -1.659523 -1.144048
v 1.138095 0.440476 -0.244048
v 1.138095 0.440476 -1.144048
v -0.261905 -1.659524 1.155952
v -1.161905 0.440476 1.155952
v -1.161905 -1.659524 1.155952
v -0.261905 0.440476 1.155952
v 0.238095 -1.659524 1.155952
v 0.238095 0.440476 1.155952
v 1.138095 -1.659524 1.155952
v 1.138095 0.440476 1.155952
v 0.238095 0.440476 0.655952
v -0.261905 0.640476 0.655952
v -0.261905 0.440476 0.655952
v 0.238095 0.640476 0.655952
v -0.261905 0.440476 0.255952
v -0.561905 0.640476 0.255952
v -0.561905 0.440476 0.255952
v -0.261905 0.640476 0.255952
v 0.538095 0.440476 0.255952
v 0.238095 0.640476 0.255952
v 0.238095 0.440476 0.255952
v 0.538095 0.640476 0.255952
v 0.138095 0.440476 -0.244048
v -0.161905 0.540476 -0.244048
v -0.161905 0.440476 -0.244048
v 0.138095 0.540476 -0.244048
v -0.161905 0.640476 -0.244048
v 0.138095 0.640476 -0.244048
v -0.161905 0.440476 0.255952
v -0.161905 0.640476 0.255952
v 0.138095 0.440476 0.255952
v 0.138095 0.640476 0.255952
v -0.561905 0.440476 -0.244048
v -0.561905 0.640476 -0.244048
v -0.261905 0.440476 -0.244048
v -0.261905 0.640476 -0.244048
v 0.238095 0.440476 -0.244048
v 0.238095 0.640476 -0.244048
v 0.538095 0.440476 -0.244048
v 0.538095 0.640476 -0.244048
v -0.261905 0.440476 -0.644048
v -0.261905 0.640477 -0.644047
v 0.238095 0.440476 -0.644048
v 0.238095 0.640477 -0.644047
v -1.161905 -1.659523 -1.144048
v -1.161905 0.440476 -1.144048
v -0.261905 -1.659523 -1.144048
v -0.261905 0.440476 -1.144048
v 0.238095 -1.659523 -1.144048
v 0.238095 0.440476 -1.144048
v 1.138095 -1.659523 -1.144048
v 1.138095 0.440476 -1.144048
v -0.261905 -1.659524 0.655952
v -0.261905 -1.659524 1.155952
v -1.161905 -1.659524 1.155952
v 0.238095 -1.659524 1.155952
v 0.238095 -1.659524 0.655952
v 1.138095 -1.659524 1.155952
v -1.161905 -1.659524 0.255952
v -0.561905 -1.659524 0.255952
v 1.038095 -1.659524 0.255952
v 1.138095 -1.659524 0.255952
v -0.561905 -1.659524 0.055952
v 1.038095 -1.659524 0.055952
v -0.561905 -1.659524 -0.044048
v 1.038095 -1.659524 -0.044048
v -1.161905 -1.659524 -0.244048
v -0.561905 -1.659524 -0.244048
v 1.038095 -1.659524 -0.244048
v 1.138095 -1.659524 -0.244048
v -0.261905 -1.659524 -0.644048
v 0.238095 -1.659524 -0.644048
v -1.161905 -1.659523 -1.144048
v -0.261905 -1.659523 -1.144048
v 0.238095 -1.659523 -1.144048
v 1.138095 -1.659523 -1.144048
v -1.161905 0.440476 1.155952
v -0.261905 0.440476 1.155952
v -0.261905 0.440476 0.655952
v 0.238095 0.440476 1.155952
v 1.138095 0.440476 1.155952
v 0.238095 0.440476 0.655952
v -1.161905 0.440476 0.255952
v -0.561905 0.440476 0.255952
v -0.261905 0.440476 0.255952
v 0.238095 0.440476 0.255952
v 0.538095 0.440476 0.255952
v 1.138095 0.440476 0.255952
v -1.161905 0.440476 -0.244048
v -0.561905 0.440476 -0.244048
v -0.161905 0.440476 0.255952
v 0.138095 0.440476 0.255952
v -0.161905 0.440476 -0.244048
v 0.138095 0.440476 -0.244048
v 0.538095 0.440476 -0.244048
v 1.138095 0.440476 -0.244048
v -0.261905 0.440476 -0.244048
v -0.261905 0.440476 -0.644048
v 0.238095 0.440476 -0.644048
v 0.238095 0.440476 -0.244048
v -1.161905 0.440476 -1.144048
v -0.261905 0.440476 -1.144048
v 0.238095 0.440476 -1.144048
v 1.138095 0.440476 -1.144048
v -0.261905 0.640476 0.655952
v 0.238095 0.640476 0.655952
v -0.261905 0.640476 0.255952
v -0.161905 0.640476 0.255952
v 0.138095 0.640476 0.255952
v 0.238095 0.640476 0.255952
v -0.561905 0.640476 0.255952
v -0.561905 0.640476 -0.244048
v -0.261905 0.640476 -0.244048
v -0.161905 0.640476 -0.244048
v 0.538095 0.640476 0.255952
v 0.138095 0.640476 -0.244048
v 0.238095 0.640476 -0.244048
v 0.538095 0.640476 -0.244048
v -0.261905 0.640477 -0.644047
v 0.238095 0.640477 -0.644047
vt 0.630859 0.500000
vt 0.630859 0.500000
vt 0.630859 0.500000
vt 0.958984 0.500000
vt 0.958984 0.500000
vt 0.958984 0.500000
vt 0.630859 0.500000
vt 0.630859 0.500000
vt 0.630859 0.500000
vt 0.630859 0.500000
vt 0.958984 0.500000
vt 0.630859 0.500000
vt 0.958984 0.500000
vt 0.958984 0.500000
vt 0.958984 0.500000
vt 0.958984 0.500000
vt 0.958984 0.500000
vt 0.958984 0.500000
vt 0.958984 0.500000
vt 0.958984 0.500000
vt 0.958984 0.500000
vt 0.958984 0.500000
vt 0.958984 0.500000
vt 0.958984 0.500000
vt 0.958984 0.500000
vt 0.958984 0.500000
vt 0.958984 0.500000
vt 0.958984 0.500000
vt 0.958984 0.500000
vt 0.958984 0.500000
vt 0.958984 0.500000
vt 0.958984 0.500000
vt 0.958984 0.500000
vt 0.958984 0.500000
vt 0.958984 0.500000
vt 0.958984 0.500000
vt 0.958984 0.500000
vt 0.958984 0.500000
vt 0.958984 0.500000
vt 0.958984 0.500000
vt 0.958984 0.500000
vt 0.958984 0.500000
vt 0.958984 0.500000
vt 0.958984 0.500000
vt 0.958984 0.500000
vt 0.958984 0.500000
vt 0.630859 0.500000
vt 0.630859 0.500000
vt 0.630859 0.500000
vt 0.958984 0.500000
vt 0.958984 0.500000
vt 0.958984 0.500000
vt 0.630859 0.500000
vt 0.630859 0.500000
vt 0.630859 0.500000
vt 0.630859 0.500000
vt 0.958984 0.500000
vt 0.630859 0.500000
vt 0.630859 0.500000
vt 0.630859 0.500000
vt 0.630859 0.500000
vt 0.630859 0.500000
vt 0.958984 0.500000
vt 0.958984 0.500000
vt 0.958984 0.500000
vt 0.958984 0.500000
vt 0.630859 0.500000
vt 0.630859 0.500000
vt 0.630859 0.500000
vt 0.630859 0.500000
vt 0.958984 0.500000
vt 0.958984 0.500000
vt 0.958984 0.500000
vt 0.958984 0.500000
vt 0.958984 0.500000
vt 0.958984 0.500000
vt 0.958984 0.500000
vt 0.958984 0.500000
vt 0.958984 0.500000
vt 0.958984 0.500000
vt 0.958984 0.500000
vt 0.958984 0.500000
vt 0.630859 0.500000
vt 0.630859 0.500000
vt 0.630859 0.500000
vt 0.958984 0.500000
vt 0.958984 0.500000
vt 0.958984 0.500000
vt 0.630859 0.500000
vt 0.958984 0.500000
vt 0.958984 0.500000
vt 0.958984 0.500000
vt 0.958984 0.500000
vt 0.958984 0.500000
vt 0.958984 0.500000
vt 0.958984 0.500000
vt 0.958984 0.500000
vt 0.958984 0.500000
vt 0.958984 0.500000
vt 0.958984 0.500000
vt 0.958984 0.500000
vt 0.958984 0.500000
vt 0.958984 0.500000
vt 0.958984 0.500000
vt 0.958984 0.500000
vt 0.958984 0.500000
vt 0.630859 0.500000
vt 0.630859 0.500000
vt 0.630859 0.500000
vt 0.630859 0.500000
vt 0.958984 0.500000
vt 0.958984 0.500000
vt 0.958984 0.500000
vt 0.958984 0.500000
vt 0.630859 0.500000
vt 0.630859 0.500000
vt 0.630859 0.500000
vt 0.630859 0.500000
vt 0.630859 0.500000
vt 0.630859 0.500000
vt 0.630859 0.500000
vt 0.958984 0.500000
vt 0.958984 0.500000
vt 0.958984 0.500000
vt 0.630859 0.500000
vt 0.630859 0.500000
vt 0.630859 0.500000
vt 0.958984 0.500000
vt 0.630859 0.500000
vt 0.630859 0.500000
vt 0.630859 0.500000
vt 0.630859 0.500000
vt 0.958984 0.500000
vt 0.958984 0.500000
vt 0.958984 0.500000
vt 0.630859 0.500000
vt 0.958984 0.500000
vt 0.958984 0.500000
vt 0.958984 0.500000
vt 0.630859 0.500000
vt 0.958984 0.500000
vt 0.958984 0.500000
vt 0.958984 0.500000
vt 0.630859 0.500000
vt 0.630859 0.500000
vt 0.630859 0.500000
vt 0.958984 0.500000
vt 0.958984 0.500000
vt 0.630859 0.500000
vt 0.958984 0.500000
vt 0.630859 0.500000
vt 0.630859 0.500000
vt 0.630859 0.500000
vt 0.630859 0.500000
vt 0.630859 0.500000
vt 0.958984 0.500000
vt 0.958984 0.500000
vt 0.958984 0.500000
vt 0.630859 0.500000
vt 0.630859 0.500000
vt 0.958984 0.500000
vt 0.630859 0.500000
vt 0.630859 0.500000
vt 0.630859 0.500000
vt 0.630859 0.500000
vt 0.958984 0.500000
vt 0.958984 0.500000
vt 0.958984 0.500000
vt 0.630859 0.500000
vt 0.630859 0.500000
vt 0.630859 0.500000
vt 0.958984 0.500000
vt 0.630859 0.500000
vt 0.630859 0.500000
vt 0.630859 0.500000
vt 0.630859 0.500000
vt 0.630859 0.500000
vt 0.630859 0.500000
vt 0.958984 0.500000
vt 0.958984 0.500000
vt 0.958984 0.500000
vt 0.958984 0.500000
vt 0.630859 0.500000
vt 0.630859 0.500000
vt 0.630859 0.500000
vt 0.630859 0.500000
vt 0.958984 0.500000
vt 0.958984 0.500000
vt 0.958984 0.500000
vt 0.958984 0.500000
vt 0.630859 0.500000
vt 0.630859 0.500000
vt 0.630859 0.500000
vt 0.630859 0.500000
vt 0.630859 0.500000
vt 0.630859 0.500000
vt 0.630859 0.500000
vt 0.630859 0.500000
vt 0.630859 0.500000
vt 0.958984 0.500000
vt 0.958984 0.500000
vt 0.958984 0.500000
vt 0.630859 0.500000
vt 0.630859 0.500000
vt 0.958984 0.500000
vt 0.630859 0.500000
vt 0.958984 0.500000
vt 0.958984 0.500000
vt 0.958984 0.500000
vt 0.958984 0.500000
vt 0.958984 0.500000
vt 0.958984 0.500000
vt 0.958984 0.500000
vt 0.958984 0.500000
vt 0.958984 0.500000
vt 0.958984 0.500000
vt 0.958984 0.500000
vt 0.958984 0.500000
vt 0.958984 0.500000
vt 0.958984 0.500000
vt 0.958984 0.500000
vt 0.958984 0.500000
vn -1.0000 0.0000 0.0000
vn 1.0000 -0.0000 0.0000
vn 0.0000 -0.0000 1.0000
vn 0.0000 0.0000 -1.0000
vn -0.0000 -1.0000 0.0000
vn 0.0000 1.0000 0.0000
usemtl palette.007
s 1
f 1/1/1 2/2/1 3/3/1
f 4/4/1 5/5/1 2/6/1
f 4/7/1 2/2/1 1/1/1
f 6/8/1 7/9/1 5/10/1
f 6/11/1 5/5/1 4/4/1
f 8/12/1 7/9/1 6/8/1
f 9/13/1 10/14/1 11/15/1
f 12/16/1 10/14/1 9/13/1
f 13/17/1 14/18/1 15/19/1
f 16/20/1 14/18/1 13/17/1
f 17/21/1 18/22/1 19/23/1
f 20/24/1 18/22/1 17/21/1
f 21/25/1 22/26/1 23/27/1
f 24/28/1 21/25/1 23/27/1
f 25/29/1 21/25/1 24/28/1
f 26/30/2 27/31/2 28/32/2
f 26/30/2 28/32/2 29/33/2
f 29/33/2 28/32/2 30/34/2
f 31/35/2 32/36/2 33/37/2
f 33/37/2 32/36/2 34/38/2
f 35/39/2 36/40/2 37/41/2
f 37/41/2 36/40/2 38/42/2
f 39/43/2 40/44/2 41/45/2
f 41/45/2 40/44/2 42/46/2
f 43/47/2 44/48/2 45/49/2
f 44/50/2 46/51/2 47/52/2
f 45/49/2 44/48/2 47/53/2
f 46/54/2 48/55/2 49/56/2
f 47/52/2 46/51/2 49/57/2
f 49/56/2 48/55/2 50/58/2
f 51/59/3 52/60/3 53/61/3
f 54/62/3 52/60/3 51/59/3
f 55/63/3 54/64/3 51/65/3
f 56/66/3 54/64/3 55/63/3
f 57/67/3 56/68/3 55/69/3
f 58/70/3 56/68/3 57/67/3
f 59/71/3 60/72/3 61/73/3
f 62/74/3 60/72/3 59/71/3
f 63/75/3 64/76/3 65/77/3
f 66/78/3 64/76/3 63/75/3
f 67/79/3 68/80/3 69/81/3
f 70/82/3 68/80/3 67/79/3
f 71/83/3 72/84/3 73/85/3
f 74/86/3 75/87/3 72/88/3
f 74/89/3 72/84/3 71/83/3
f 76/90/3 75/87/3 74/86/3
f 77/91/4 78/92/4 79/93/4
f 79/93/4 78/92/4 80/94/4
f 81/95/4 82/96/4 83/97/4
f 83/97/4 82/96/4 84/98/4
f 85/99/4 86/100/4 87/101/4
f 87/101/4 86/100/4 88/102/4
f 89/103/4 90/104/4 91/105/4
f 91/105/4 90/104/4 92/106/4
f 93/107/4 94/108/4 95/109/4
f 95/109/4 94/108/4 96/110/4
f 95/111/4 96/112/4 97/113/4
f 97/113/4 96/112/4 98/114/4
f 97/115/4 98/116/4 99/117/4
f 99/117/4 98/116/4 100/118/4
f 101/119/5 102/120/5 103/121/5
f 101/122/5 104/123/5 102/124/5
f 105/125/5 106/126/5 104/127/5
f 105/128/5 104/123/5 101/122/5
f 107/129/5 101/119/5 103/121/5
f 107/129/5 105/125/5 101/119/5
f 108/130/5 105/125/5 107/129/5
f 109/131/5 106/126/5 105/125/5
f 109/131/5 105/125/5 108/130/5
f 110/132/5 106/126/5 109/131/5
f 111/133/5 108/134/5 107/135/5
f 111/136/5 109/131/5 108/130/5
f 112/137/5 110/138/5 109/139/5
f 112/140/5 109/131/5 111/136/5
f 113/141/5 111/133/5 107/135/5
f 113/141/5 112/137/5 111/133/5
f 114/142/5 110/138/5 112/137/5
f 114/142/5 112/137/5 113/141/5
f 115/143/5 113/141/5 107/135/5
f 116/144/5 114/145/5 113/146/5
f 116/147/5 113/141/5 115/143/5
f 117/148/5 110/138/5 114/142/5
f 117/149/5 114/145/5 116/144/5
f 118/150/5 110/138/5 117/148/5
f 119/151/5 116/144/5 115/152/5
f 119/151/5 117/149/5 116/144/5
f 119/151/5 118/153/5 117/149/5
f 120/154/5 118/153/5 119/151/5
f 121/155/5 119/151/5 115/152/5
f 122/156/5 120/157/5 119/158/5
f 122/159/5 119/151/5 121/155/5
f 123/160/5 118/153/5 120/154/5
f 123/161/5 120/157/5 122/156/5
f 124/162/5 118/153/5 123/160/5
f 125/163/6 126/164/6 127/165/6
f 126/166/6 128/167/6 127/168/6
f 128/169/6 129/170/6 130/171/6
f 127/168/6 128/167/6 130/172/6
f 125/163/6 127/165/6 131/173/6
f 131/173/6 127/165/6 132/174/6
f 132/174/6 127/165/6 133/175/6
f 130/171/6 129/170/6 134/176/6
f 134/176/6 129/170/6 135/177/6
f 135/177/6 129/170/6 136/178/6
f 131/179/6 132/180/6 137/181/6
f 137/181/6 132/180/6 138/182/6
f 139/183/6 140/184/6 141/185/6
f 141/185/6 140/184/6 142/186/6
f 135/187/6 136/188/6 143/189/6
f 143/189/6 136/188/6 144/190/6
f 138/191/6 145/192/6 146/193/6
f 137/194/6 138/191/6 146/193/6
f 143/195/6 144/196/6 147/197/6
f 148/198/6 143/195/6 147/197/6
f 137/194/6 146/193/6 149/199/6
f 146/200/6 147/201/6 150/202/6
f 149/199/6 146/193/6 150/203/6
f 147/197/6 144/196/6 151/204/6
f 150/202/6 147/201/6 151/205/6
f 151/204/6 144/196/6 152/206/6
f 153/207/6 154/208/6 155/209/6
f 155/209/6 154/208/6 156/210/6
f 156/210/6 154/208/6 157/211/6
f 157/211/6 154/208/6 158/212/6
f 159/213/6 155/209/6 160/214/6
f 155/209/6 156/210/6 160/214/6
f 160/214/6 156/210/6 161/215/6
f 161/215/6 156/210/6 162/216/6
f 158/212/6 163/217/6 164/218/6
f 157/211/6 158/212/6 164/218/6
f 164/218/6 163/217/6 165/219/6
f 165/219/6 163/217/6 166/220/6
f 161/215/6 162/216/6 167/221/6
f 164/218/6 165/219/6 167/221/6
f 162/216/6 164/218/6 167/221/6
f 167/221/6 165/219/6 168/222/6
